<svg width="30" height="32" viewBox="0 0 30 32" fill="none" xmlns="http://www.w3.org/2000/svg">
<rect width="30" height="30" rx="15" fill="#2C353D"/>
<g filter="url(#filter0_d_3857_411)">
<path fill-rule="evenodd" clip-rule="evenodd" d="M9.28472 6.28632C5.58205 7.41942 4.26185 11.2488 5.3915 14.5991C7.20862 19.9716 15.0014 24 15.0014 24C15.0014 24 22.8521 19.9096 24.6102 14.5991C25.7388 11.2488 24.4102 7.41942 20.7075 6.28632C18.762 5.69326 16.5332 6.0733 15.0014 7.1984C13.3822 6.0413 11.2324 5.68926 9.28472 6.28632ZM18.7574 9.27339C18.3561 9.17069 17.9476 9.41273 17.8448 9.81401C17.7421 10.2153 17.9842 10.6238 18.3855 10.7265C19.768 11.0804 20.5877 12.009 20.6825 12.9336C20.7247 13.3457 21.093 13.6455 21.5051 13.6032C21.9171 13.5609 22.2169 13.1926 22.1747 12.7806C21.9982 11.0604 20.5644 9.73588 18.7574 9.27339Z" fill="#FF6934"/>
</g>
<defs>
<filter id="filter0_d_3857_411" x="1" y="5" width="28" height="28" filterUnits="userSpaceOnUse" color-interpolation-filters="sRGB">
<feFlood flood-opacity="0" result="BackgroundImageFix"/>
<feColorMatrix in="SourceAlpha" type="matrix" values="0 0 0 0 0 0 0 0 0 0 0 0 0 0 0 0 0 0 127 0" result="hardAlpha"/>
<feOffset dy="4"/>
<feGaussianBlur stdDeviation="2"/>
<feComposite in2="hardAlpha" operator="out"/>
<feColorMatrix type="matrix" values="0 0 0 0 1 0 0 0 0 0.411765 0 0 0 0 0.203922 0 0 0 0.25 0"/>
<feBlend mode="normal" in2="BackgroundImageFix" result="effect1_dropShadow_3857_411"/>
<feBlend mode="normal" in="SourceGraphic" in2="effect1_dropShadow_3857_411" result="shape"/>
</filter>
</defs>
</svg>
